<svg width="725" height="151" viewBox="0 0 725 151" fill="none" xmlns="http://www.w3.org/2000/svg">
<path fill-rule="evenodd" clip-rule="evenodd" d="M193.018 143.3C191.84 146.472 188.396 150.143 178.471 150.732C177.625 150.793 176.718 150.823 175.752 150.823H17.7229C5.71325 150.823 1.72515 146.744 0.501526 143.3C-0.132946 141.623 -1.03934 137.182 3.99111 132.967L10.9703 127.121L22.3001 117.649C27.0133 113.706 29.7325 107.905 29.7325 101.742V45.5913C29.7325 36.3914 37.1649 28.9591 46.3647 28.9591H123.68V40.6968H46.3647C44.28 40.6968 42.4673 42.011 41.7875 43.8691C41.576 44.3828 41.4702 44.9266 41.4702 45.5006C41.4702 45.5611 41.4702 45.5913 41.4702 45.5913V101.379C41.4702 104.099 43.6456 106.274 46.3647 106.274H146.657C149.376 106.274 151.551 104.099 151.551 101.379V70.7889H163.289V101.379C163.289 107.498 166.008 113.344 170.721 117.287L189.483 132.967C194.514 137.182 193.607 141.623 193.018 143.3ZM178.335 138.949L155.856 120.142C154.678 119.462 149.965 118.284 144.391 118.284H49.1292C43.5096 118.284 38.7964 119.462 37.6181 120.142L15.1397 138.949C15.895 139.01 16.7561 139.04 17.7229 139.04H175.752C176.718 139.04 177.579 139.01 178.335 138.949Z" fill="#CCCCCC"/>
<path d="M136.505 40.6968H151.551V55.7428H163.289V40.6968H178.335V28.9591H163.289V13.913H151.551V28.9591H136.505V40.6968Z" fill="#6A3EC4"/>
<path d="M115.341 0H122.728V7.34174H115.341V0Z" fill="#FEBD25"/>
<path d="M127.169 5.12108H142.17V20.1671H127.169V5.12108Z" fill="#F70063"/>
<path d="M182.142 68.6135H189.529V75.9553H182.142V68.6135Z" fill="#F70063"/>
<path d="M170.812 48.2198H185.858V63.2659H170.812V48.2198Z" fill="#43ADB4"/>
<path d="M47.3164 48.7183V69.8372L79.2212 45.8632H50.2168C48.6307 45.8632 47.3164 47.1322 47.3164 48.7183Z" fill="#F7DDD0"/>
<path d="M47.3164 87.7383V97.5273C47.3164 99.1135 48.6307 100.382 50.2168 100.382H58.7369L124.223 45.8632H101.201L47.3164 87.7383Z" fill="#F7DDD0"/>
<path d="M143.439 100.382C145.025 100.382 146.294 99.1135 146.294 97.5273V53.7488L97.9834 100.382H143.439Z" fill="#F7DDD0"/>
<path d="M233.32 39.896H280.936V54.2H250.312V66.776H272.68V80.12H250.312V92.696H280.936V107H233.32V39.896ZM307.818 108.44C303.018 108.44 298.762 107.448 295.049 105.464C291.338 103.416 288.458 100.568 286.41 96.92C284.362 93.208 283.338 88.92 283.338 84.056C283.338 79.256 284.362 75 286.41 71.288C288.458 67.512 291.306 64.6 294.954 62.552C298.666 60.504 302.954 59.48 307.818 59.48C311.018 59.48 313.962 59.928 316.65 60.824C319.338 61.72 321.642 63 323.562 64.664V36.056H340.458V107H324.138V102.392C319.85 106.424 314.41 108.44 307.818 108.44ZM312.234 95.384C314.794 95.384 317.098 94.744 319.146 93.464C321.194 92.12 322.666 90.328 323.562 88.088V79.928C322.666 77.688 321.194 75.928 319.146 74.648C317.098 73.304 314.794 72.632 312.234 72.632C308.778 72.632 305.994 73.656 303.882 75.704C301.77 77.752 300.714 80.536 300.714 84.056C300.714 87.576 301.77 90.36 303.882 92.408C305.994 94.392 308.778 95.384 312.234 95.384ZM367.629 108.44C361.293 108.44 356.525 106.68 353.325 103.16C350.189 99.64 348.621 95 348.621 89.24V60.92H365.517V87.32C365.517 92.632 367.917 95.288 372.717 95.288C374.893 95.288 376.877 94.776 378.669 93.752C380.461 92.728 381.933 91.224 383.085 89.24V60.92H399.981V107H383.661V102.008C381.677 104.12 379.277 105.72 376.461 106.808C373.645 107.896 370.701 108.44 367.629 108.44ZM434.169 108.44C425.721 108.44 419.033 106.328 414.105 102.104C409.177 97.88 406.713 91.864 406.713 84.056C406.713 76.248 409.177 70.2 414.105 65.912C419.097 61.624 425.817 59.48 434.265 59.48C438.041 59.48 441.561 59.864 444.825 60.632C448.153 61.336 450.905 62.36 453.081 63.704V76.856C449.177 74.04 444.025 72.632 437.625 72.632C433.529 72.632 430.233 73.592 427.737 75.512C425.305 77.368 424.089 80.216 424.089 84.056C424.089 87.96 425.305 90.84 427.737 92.696C430.169 94.488 433.433 95.384 437.529 95.384C443.737 95.384 449.113 93.912 453.656 90.968V104.024C448.793 106.968 442.297 108.44 434.169 108.44ZM477.29 108.44C471.53 108.44 466.858 107.064 463.274 104.312C459.754 101.496 457.994 97.592 457.994 92.6C457.994 87.416 459.69 83.448 463.082 80.696C466.538 77.88 471.466 76.472 477.866 76.472C480.362 76.472 482.858 76.76 485.354 77.336C487.85 77.848 489.994 78.552 491.786 79.448V78.488C491.786 73.56 487.754 71.096 479.69 71.096C474.058 71.096 468.906 72.184 464.234 74.36V62.744C466.282 61.784 468.97 61.016 472.298 60.44C475.626 59.8 479.082 59.48 482.666 59.48C491.242 59.48 497.706 61.208 502.058 64.664C506.474 68.056 508.682 72.824 508.682 78.968V107H492.842V103.064C491.114 104.728 488.938 106.04 486.314 107C483.69 107.96 480.682 108.44 477.29 108.44ZM482.282 98.072C484.266 98.072 486.122 97.688 487.85 96.92C489.578 96.088 490.89 95.032 491.786 93.752V89.72C489.034 87.864 485.898 86.936 482.378 86.936C480.138 86.936 478.41 87.416 477.194 88.376C475.978 89.336 475.37 90.744 475.37 92.6C475.37 94.328 475.946 95.672 477.098 96.632C478.314 97.592 480.042 98.072 482.282 98.072Z" fill="#6A3EC4"/>
<path d="M529.872 54.2H510.96V39.896H565.872V54.2H546.864V107H529.872V54.2ZM587.142 108.44C578.118 108.44 571.014 106.328 565.83 102.104C560.71 97.88 558.15 91.896 558.15 84.152C558.15 76.536 560.422 70.52 564.966 66.104C569.574 61.688 576.198 59.48 584.838 59.48C590.342 59.48 595.046 60.536 598.95 62.648C602.918 64.696 605.894 67.544 607.878 71.192C609.926 74.776 610.95 78.84 610.95 83.384V89.624H574.182C574.822 92.184 576.422 94.04 578.982 95.192C581.542 96.344 585.03 96.92 589.446 96.92C592.454 96.92 595.526 96.664 598.662 96.152C601.862 95.64 604.614 94.936 606.918 94.04V105.176C604.55 106.136 601.574 106.904 597.99 107.48C594.47 108.12 590.854 108.44 587.142 108.44ZM595.014 79.064C594.758 76.568 593.734 74.616 591.942 73.208C590.15 71.8 587.686 71.096 584.55 71.096C581.478 71.096 579.046 71.832 577.254 73.304C575.462 74.712 574.438 76.632 574.182 79.064H595.014ZM643.169 108.44C634.721 108.44 628.033 106.328 623.105 102.104C618.177 97.88 615.713 91.864 615.713 84.056C615.713 76.248 618.177 70.2 623.105 65.912C628.097 61.624 634.817 59.48 643.265 59.48C647.041 59.48 650.561 59.864 653.825 60.632C657.153 61.336 659.905 62.36 662.081 63.704V76.856C658.177 74.04 653.025 72.632 646.625 72.632C642.529 72.632 639.233 73.592 636.737 75.512C634.305 77.368 633.089 80.216 633.089 84.056C633.089 87.96 634.305 90.84 636.737 92.696C639.169 94.488 642.433 95.384 646.529 95.384C652.737 95.384 658.113 93.912 662.656 90.968V104.024C657.793 106.968 651.297 108.44 643.169 108.44ZM669.383 36.056H686.279V65.624C688.327 63.576 690.663 62.04 693.286 61.016C695.975 59.992 698.791 59.48 701.735 59.48C708.199 59.48 712.967 61.176 716.039 64.568C719.175 67.896 720.743 72.44 720.743 78.2V107H703.847V80.408C703.847 75.224 701.479 72.632 696.743 72.632C694.567 72.632 692.583 73.144 690.791 74.168C688.999 75.128 687.495 76.632 686.279 78.68V107H669.383V36.056Z" fill="#F70063"/>
</svg>
