<svg width="496" height="425" viewBox="0 0 496 425" fill="none" xmlns="http://www.w3.org/2000/svg">
<path fill-rule="evenodd" clip-rule="evenodd" d="M421.335 266.034C419.147 271.923 412.753 278.738 394.328 279.832C392.757 279.944 391.075 280 389.28 280H95.9022C73.6066 280 66.2027 272.428 63.9311 266.034C62.7532 262.921 61.0705 254.676 70.4094 246.851L83.3662 235.998L104.4 218.413C113.15 211.094 118.198 200.325 118.198 188.882V84.6394C118.198 67.5601 131.996 53.762 149.075 53.762H292.609V75.5529H149.075C145.205 75.5529 141.84 77.9928 140.578 81.4423C140.185 82.3958 139.989 83.4055 139.989 84.4712C139.989 84.5833 139.989 84.6394 139.989 84.6394V188.209C139.989 193.257 144.027 197.296 149.075 197.296H335.265C340.313 197.296 344.352 193.257 344.352 188.209V131.418H366.143V188.209C366.143 199.567 371.191 210.421 379.941 217.74L414.772 246.851C424.111 254.676 422.429 262.921 421.335 266.034ZM394.075 257.957L352.345 223.041C350.157 221.779 341.407 219.591 331.059 219.591H154.208C143.775 219.591 135.025 221.779 132.837 223.041L91.1065 257.957C92.5088 258.069 94.1074 258.125 95.9022 258.125H389.28C391.075 258.125 392.673 258.069 394.075 257.957Z" fill="#CCCCCC"/>
<path d="M316.419 75.5529H344.352V103.486H366.143V75.5529H394.075V53.762H366.143V25.8293H344.352V53.762H316.419V75.5529Z" fill="#6A3EC4"/>
<path d="M277.128 0H290.842V13.6298H277.128V0Z" fill="#FEBD25"/>
<path d="M299.087 9.5072H326.936V37.4399H299.087V9.5072Z" fill="#F70063"/>
<path d="M401.143 127.38H414.857V141.01H401.143V127.38Z" fill="#F70063"/>
<path d="M380.109 89.5192H408.042V117.452H380.109V89.5192Z" fill="#43ADB4"/>
<path d="M150.842 90.4447V129.651L210.073 85.1442H156.227C153.282 85.1442 150.842 87.5 150.842 90.4447Z" fill="#F7DDD0"/>
<path d="M150.842 162.885V181.058C150.842 184.002 153.282 186.358 156.227 186.358H172.044L293.619 85.1442H250.878L150.842 162.885Z" fill="#F7DDD0"/>
<path d="M329.292 186.358C332.236 186.358 334.592 184.002 334.592 181.058V99.7837L244.905 186.358H329.292Z" fill="#F7DDD0"/>
<path d="M4.32 317.896H51.936V332.2H21.312V344.776H43.68V358.12H21.312V370.696H51.936V385H4.32V317.896ZM78.8175 386.44C74.0175 386.44 69.7615 385.448 66.0495 383.464C62.3375 381.416 59.4575 378.568 57.4095 374.92C55.3615 371.208 54.3375 366.92 54.3375 362.056C54.3375 357.256 55.3615 353 57.4095 349.288C59.4575 345.512 62.3055 342.6 65.9535 340.552C69.6655 338.504 73.9535 337.48 78.8175 337.48C82.0175 337.48 84.9615 337.928 87.6495 338.824C90.3375 339.72 92.6415 341 94.5615 342.664V314.056H111.458V385H95.1375V380.392C90.8495 384.424 85.4095 386.44 78.8175 386.44ZM83.2335 373.384C85.7935 373.384 88.0975 372.744 90.1455 371.464C92.1935 370.12 93.6655 368.328 94.5615 366.088V357.928C93.6655 355.688 92.1935 353.928 90.1455 352.648C88.0975 351.304 85.7935 350.632 83.2335 350.632C79.7775 350.632 76.9935 351.656 74.8815 353.704C72.7695 355.752 71.7135 358.536 71.7135 362.056C71.7135 365.576 72.7695 368.36 74.8815 370.408C76.9935 372.392 79.7775 373.384 83.2335 373.384ZM138.629 386.44C132.293 386.44 127.525 384.68 124.325 381.16C121.189 377.64 119.621 373 119.621 367.24V338.92H136.517V365.32C136.517 370.632 138.917 373.288 143.717 373.288C145.893 373.288 147.877 372.776 149.669 371.752C151.461 370.728 152.933 369.224 154.085 367.24V338.92H170.981V385H154.661V380.008C152.677 382.12 150.277 383.72 147.461 384.808C144.645 385.896 141.701 386.44 138.629 386.44ZM205.169 386.44C196.721 386.44 190.033 384.328 185.105 380.104C180.177 375.88 177.713 369.864 177.713 362.056C177.713 354.248 180.177 348.2 185.105 343.912C190.097 339.624 196.817 337.48 205.265 337.48C209.041 337.48 212.561 337.864 215.825 338.632C219.153 339.336 221.905 340.36 224.081 341.704V354.856C220.177 352.04 215.025 350.632 208.625 350.632C204.529 350.632 201.233 351.592 198.737 353.512C196.305 355.368 195.089 358.216 195.089 362.056C195.089 365.96 196.305 368.84 198.737 370.696C201.169 372.488 204.433 373.384 208.529 373.384C214.737 373.384 220.113 371.912 224.656 368.968V382.024C219.793 384.968 213.297 386.44 205.169 386.44ZM248.29 386.44C242.53 386.44 237.858 385.064 234.274 382.312C230.754 379.496 228.994 375.592 228.994 370.6C228.994 365.416 230.69 361.448 234.082 358.696C237.538 355.88 242.466 354.472 248.866 354.472C251.362 354.472 253.858 354.76 256.354 355.336C258.85 355.848 260.994 356.552 262.786 357.448V356.488C262.786 351.56 258.754 349.096 250.69 349.096C245.058 349.096 239.906 350.184 235.234 352.36V340.744C237.282 339.784 239.97 339.016 243.298 338.44C246.626 337.8 250.082 337.48 253.666 337.48C262.242 337.48 268.706 339.208 273.058 342.664C277.474 346.056 279.682 350.824 279.682 356.968V385H263.842V381.064C262.114 382.728 259.938 384.04 257.314 385C254.69 385.96 251.682 386.44 248.29 386.44ZM253.282 376.072C255.266 376.072 257.122 375.688 258.85 374.92C260.578 374.088 261.89 373.032 262.786 371.752V367.72C260.034 365.864 256.898 364.936 253.378 364.936C251.138 364.936 249.41 365.416 248.194 366.376C246.978 367.336 246.37 368.744 246.37 370.6C246.37 372.328 246.946 373.672 248.098 374.632C249.314 375.592 251.042 376.072 253.282 376.072Z" fill="#6A3EC4"/>
<path d="M300.872 332.2H281.96V317.896H336.872V332.2H317.864V385H300.872V332.2ZM358.142 386.44C349.118 386.44 342.014 384.328 336.83 380.104C331.71 375.88 329.15 369.896 329.15 362.152C329.15 354.536 331.422 348.52 335.966 344.104C340.574 339.688 347.198 337.48 355.838 337.48C361.342 337.48 366.046 338.536 369.95 340.648C373.918 342.696 376.894 345.544 378.878 349.192C380.926 352.776 381.95 356.84 381.95 361.384V367.624H345.182C345.822 370.184 347.422 372.04 349.982 373.192C352.542 374.344 356.03 374.92 360.446 374.92C363.454 374.92 366.526 374.664 369.662 374.152C372.862 373.64 375.614 372.936 377.918 372.04V383.176C375.55 384.136 372.574 384.904 368.99 385.48C365.47 386.12 361.854 386.44 358.142 386.44ZM366.014 357.064C365.758 354.568 364.734 352.616 362.942 351.208C361.15 349.8 358.686 349.096 355.55 349.096C352.478 349.096 350.046 349.832 348.254 351.304C346.462 352.712 345.438 354.632 345.182 357.064H366.014ZM414.169 386.44C405.721 386.44 399.033 384.328 394.105 380.104C389.177 375.88 386.713 369.864 386.713 362.056C386.713 354.248 389.177 348.2 394.105 343.912C399.097 339.624 405.817 337.48 414.265 337.48C418.041 337.48 421.561 337.864 424.825 338.632C428.153 339.336 430.905 340.36 433.081 341.704V354.856C429.177 352.04 424.025 350.632 417.625 350.632C413.529 350.632 410.233 351.592 407.737 353.512C405.305 355.368 404.089 358.216 404.089 362.056C404.089 365.96 405.305 368.84 407.737 370.696C410.169 372.488 413.433 373.384 417.529 373.384C423.737 373.384 429.113 371.912 433.656 368.968V382.024C428.793 384.968 422.297 386.44 414.169 386.44ZM440.383 314.056H457.279V343.624C459.327 341.576 461.663 340.04 464.286 339.016C466.975 337.992 469.791 337.48 472.735 337.48C479.199 337.48 483.967 339.176 487.039 342.568C490.175 345.896 491.743 350.44 491.743 356.2V385H474.847V358.408C474.847 353.224 472.479 350.632 467.743 350.632C465.567 350.632 463.583 351.144 461.791 352.168C459.999 353.128 458.495 354.632 457.279 356.68V385H440.383V314.056Z" fill="#F70063"/>
</svg>
